<svg fill="#f3f3f3" width="100%" height="100%" viewBox="0 0 3107 3267" version="1.1" xmlns="http://www.w3.org/2000/svg" xmlnsXlink="http://www.w3.org/1999/xlink" xmlSpace="preserve" xmlnsSerif="http://www.serif.com/" style="fill-rule:evenodd;clip-rule:evenodd;stroke-linejoin:round;stroke-miterlimit:2;"><g><g><path d="M172.4,173.167l-172.4,172.4l353.167,353.166l91.133,-91.133l-197.467,-197.467l922.834,0l-0,-129.133l-915.267,0l189.867,-189.867l-45.567,-45.566c-25.067,-25.067 -47.1,-45.567 -49.367,-45.567c-2.233,0 -82,77.467 -176.933,173.167Z" style="fill-rule:nonzero;"/><path d="M2715.27,45.567l-45.567,45.566l189.867,189.867l-915.234,0l0,129.133l922.8,0l-197.466,197.467l91.133,91.133l172.4,-172.4c95.7,-94.933 173.167,-176.2 173.167,-180.766c-0,-7.6 -334.2,-345.567 -341.8,-345.567c-2.234,0 -24.234,20.5 -49.3,45.567Z" style="fill-rule:nonzero;"/><path d="M1424.07,359.233l-121.534,70.634l-7.6,1358l-96.466,-166.334l-95.7,-167.1l-151.9,-2.266l-151.134,-1.534l-74.433,129.1l-73.667,129.134l82.034,142.033c44.8,79 104.066,181.533 130.633,227.867l48.6,85.833l37.2,180l37.2,180.767l440.533,440.533l0,300l129.134,0l-0,-353.167l-224.834,-224.8l-224.8,-224.833l-35.7,-173.933l-36.433,-173.934l-117.733,-204.3l-118.467,-204.3l72.933,-123.066l155.7,-0l396.467,686.6l2.267,-882.567l1.533,-882.567l64.567,-37.2l64.566,-36.466l64.567,36.466l64.567,37.2l-0,1074.77l129.133,0l0,-262.8l61.533,-35.7c33.434,-19.733 64.567,-35.7 68.367,-35.7c3.8,0 34.933,15.967 67.6,34.933l60.767,34.934l-0,264.333l128.366,0l2.267,-92.667l2.267,-91.9l60.766,-36.466c33.434,-20.5 64.567,-36.467 68.367,-36.467c4.567,0 36.467,16.7 71.4,36.467l63.8,35.7l-1.533,82.033c-0.767,44.8 -3.8,86.6 -6.067,92.667c-3.8,9.866 6.067,10.633 63.033,9.1l67.6,-2.267l4.534,-129.133l62.266,-35.7c50.9,-28.867 64.567,-33.4 77.467,-27.334c8.333,4.567 37.967,21.267 66.833,37.967l50.9,29.633l0,779.267l-129.133,344.8l-129.167,344.067l-0.766,126.066l-0,173.167l0.766,47.833l63.034,-2.266l62.266,-2.267l7.6,-334.2l127.6,-336.467l126.834,-335.666l-0,-878l-120,-69.134c-66.067,-38.733 -125.3,-72.166 -132.9,-74.433c-7.6,-3.8 -34.934,7.6 -75.2,30.367l-62.267,36.466l-129.867,-65.3l-129.866,-64.566l-63.034,37.2c-34.166,20.5 -64.566,37.2 -66.066,37.2c-2.267,-0 -61.534,-34.167 -132.167,-75.967l-127.633,-75.9l-65.334,37.2l-65.3,37.967l-1.533,-369.134l-2.267,-369.866l-121.533,-70.634c-66.833,-38.733 -126.833,-70.633 -132.9,-70.633c-6.067,0 -66.067,31.9 -132.933,70.633Z" style="fill-rule:nonzero;"/></g></g></svg>